# xmcd
# 
# Track frame offsets:
#     180
#     44515
#     78934
#     162183
#     191958
# 
# Disc length: 3256
# 
# Revision: 1
# Processed by: cddbd v1.5.2PL0 Copyright (c) Steve Scherf et al.
# Submitted via: BonkEnc v1.0.8
# 
DISCID=3b0cb605
DTITLE=Charlie Mariano, Chris Hinze - Blue Stone
DYEAR=1971
DGENRE=Contemporary Jazz
TTITLE0=Lullaby for Dewi
TTITLE1=Mirror of Your Mind
TTITLE2=Blue Stone
TTITLE3=Traditional South Indian (Carnatic) - Kirtanam (Ragam Mandari)
TTITLE4=Lassana Lamaya (Beautiful Child)
EXTD=YEAR: 1971
EXTT0=
EXTT1=
EXTT2=
EXTT3=
EXTT4=
PLAYORDER=
